<?xml version="1.0" encoding="UTF-8" standalone="no"?><svg xmlns="http://www.w3.org/2000/svg" xmlns:xlink="http://www.w3.org/1999/xlink" contentScriptType="application/ecmascript" contentStyleType="text/css" height="780px" preserveAspectRatio="none" style="width:1648px;height:780px;background:#FFFFFF;" version="1.1" viewBox="0 0 1648 780" width="1648px" zoomAndPan="magnify"><defs><filter height="300%" id="fksjrlln3pww" width="300%" x="-1" y="-1"><feGaussianBlur result="blurOut" stdDeviation="2.0"/><feColorMatrix in="blurOut" result="blurOut2" type="matrix" values="0 0 0 0 0 0 0 0 0 0 0 0 0 0 0 0 0 0 .4 0"/><feOffset dx="4.0" dy="4.0" in="blurOut2" result="blurOut3"/><feBlend in="SourceGraphic" in2="blurOut3" mode="normal"/></filter></defs><g><text fill="#000000" font-family="sans-serif" font-size="18" lengthAdjust="spacing" textLength="615" x="510" y="16.708">AssetManager (JAVA (android.content.res) and C/C++ (androidfw))</text><!--MD5=[4fa183d2218007cd91fdd46d007e691d]
cluster android.content.res--><polygon fill="#FFFFFF" filter="url(#fksjrlln3pww)" points="16,26.9531,183,26.9531,190,49.25,320,49.25,320,396.9531,16,396.9531,16,26.9531" style="stroke:#000000;stroke-width:1.5;"/><line style="stroke:#000000;stroke-width:1.5;" x1="16" x2="190" y1="49.25" y2="49.25"/><text fill="#000000" font-family="sans-serif" font-size="14" font-weight="bold" lengthAdjust="spacing" textLength="161" x="20" y="41.9482">android.content.res</text><!--MD5=[eef08a2346406c3f4e7185cc74b22ab8]
cluster androidfw--><polygon fill="#FFFFFF" filter="url(#fksjrlln3pww)" points="344,297.9531,432,297.9531,439,320.25,1631,320.25,1631,773.9531,344,773.9531,344,297.9531" style="stroke:#000000;stroke-width:1.5;"/><line style="stroke:#000000;stroke-width:1.5;" x1="344" x2="439" y1="320.25" y2="320.25"/><text fill="#000000" font-family="sans-serif" font-size="14" font-weight="bold" lengthAdjust="spacing" textLength="82" x="348" y="312.9482">androidfw</text><!--MD5=[47c272777d0da0d7e53cb8b2fd0114bd]
class android.content.res.ResourcesImpl--><rect codeLine="3" fill="#ADD8E6" filter="url(#fksjrlln3pww)" height="48" id="android.content.res.ResourcesImpl" style="stroke:#008000;stroke-width:1.5;" width="121" x="107.5" y="61.9531"/><ellipse cx="122.5" cy="77.9531" fill="#ADD1B2" rx="11" ry="11" style="stroke:#008000;stroke-width:1.0;"/><path d="M124.8438,73.625 C123.9063,73.1875 123.3125,73.0469 122.4375,73.0469 C119.8125,73.0469 117.8125,75.125 117.8125,77.8438 L117.8125,78.9688 C117.8125,81.5469 119.9219,83.4375 122.8125,83.4375 C124.0313,83.4375 125.1875,83.1406 125.9375,82.5938 C126.5156,82.1875 126.8438,81.7344 126.8438,81.3438 C126.8438,80.8906 126.4531,80.5 125.9844,80.5 C125.7656,80.5 125.5625,80.5781 125.375,80.7656 C124.9219,81.25 124.9219,81.25 124.7344,81.3438 C124.3125,81.6094 123.625,81.7344 122.8594,81.7344 C120.8125,81.7344 119.5156,80.6406 119.5156,78.9375 L119.5156,77.8438 C119.5156,76.0625 120.7656,74.75 122.5,74.75 C123.0781,74.75 123.6875,74.9063 124.1563,75.1563 C124.6406,75.4375 124.8125,75.6563 124.9063,76.0625 C124.9688,76.4688 125,76.5938 125.1406,76.7188 C125.2813,76.8594 125.5156,76.9688 125.7344,76.9688 C126,76.9688 126.2656,76.8281 126.4375,76.6094 C126.5469,76.4531 126.5781,76.2656 126.5781,75.8438 L126.5781,74.4219 C126.5781,73.9844 126.5625,73.8594 126.4688,73.7031 C126.3125,73.4375 126.0313,73.2969 125.7344,73.2969 C125.4375,73.2969 125.2344,73.3906 125.0156,73.7031 L124.8438,73.625 Z " fill="#000000"/><text fill="#000000" font-family="sans-serif" font-size="12" lengthAdjust="spacing" textLength="89" x="136.5" y="82.1074">ResourcesImpl</text><line style="stroke:#008000;stroke-width:1.5;" x1="108.5" x2="227.5" y1="93.9531" y2="93.9531"/><line style="stroke:#008000;stroke-width:1.5;" x1="108.5" x2="227.5" y1="101.9531" y2="101.9531"/><!--MD5=[5e9a351f6345953ee95b402ccf2a6a10]
class android.content.res.AssetManager--><rect codeLine="4" fill="#ADD8E6" filter="url(#fksjrlln3pww)" height="48" id="android.content.res.AssetManager" style="stroke:#008000;stroke-width:1.5;" width="118" x="109" y="186.9531"/><ellipse cx="124" cy="202.9531" fill="#ADD1B2" rx="11" ry="11" style="stroke:#008000;stroke-width:1.0;"/><path d="M126.3438,198.625 C125.4063,198.1875 124.8125,198.0469 123.9375,198.0469 C121.3125,198.0469 119.3125,200.125 119.3125,202.8438 L119.3125,203.9688 C119.3125,206.5469 121.4219,208.4375 124.3125,208.4375 C125.5313,208.4375 126.6875,208.1406 127.4375,207.5938 C128.0156,207.1875 128.3438,206.7344 128.3438,206.3438 C128.3438,205.8906 127.9531,205.5 127.4844,205.5 C127.2656,205.5 127.0625,205.5781 126.875,205.7656 C126.4219,206.25 126.4219,206.25 126.2344,206.3438 C125.8125,206.6094 125.125,206.7344 124.3594,206.7344 C122.3125,206.7344 121.0156,205.6406 121.0156,203.9375 L121.0156,202.8438 C121.0156,201.0625 122.2656,199.75 124,199.75 C124.5781,199.75 125.1875,199.9063 125.6563,200.1563 C126.1406,200.4375 126.3125,200.6563 126.4063,201.0625 C126.4688,201.4688 126.5,201.5938 126.6406,201.7188 C126.7813,201.8594 127.0156,201.9688 127.2344,201.9688 C127.5,201.9688 127.7656,201.8281 127.9375,201.6094 C128.0469,201.4531 128.0781,201.2656 128.0781,200.8438 L128.0781,199.4219 C128.0781,198.9844 128.0625,198.8594 127.9688,198.7031 C127.8125,198.4375 127.5313,198.2969 127.2344,198.2969 C126.9375,198.2969 126.7344,198.3906 126.5156,198.7031 L126.3438,198.625 Z " fill="#000000"/><text fill="#000000" font-family="sans-serif" font-size="12" lengthAdjust="spacing" textLength="86" x="138" y="207.1074">AssetManager</text><line style="stroke:#008000;stroke-width:1.5;" x1="110" x2="226" y1="218.9531" y2="218.9531"/><line style="stroke:#008000;stroke-width:1.5;" x1="110" x2="226" y1="226.9531" y2="226.9531"/><!--MD5=[904210ff137ece41ea9b6f0b74a16c74]
class android.content.res.ApkAssets--><rect codeLine="5" fill="#ADD8E6" filter="url(#fksjrlln3pww)" height="48" id="android.content.res.ApkAssets" style="stroke:#008000;stroke-width:1.5;" width="96" x="120" y="332.9531"/><ellipse cx="135" cy="348.9531" fill="#ADD1B2" rx="11" ry="11" style="stroke:#008000;stroke-width:1.0;"/><path d="M137.3438,344.625 C136.4063,344.1875 135.8125,344.0469 134.9375,344.0469 C132.3125,344.0469 130.3125,346.125 130.3125,348.8438 L130.3125,349.9688 C130.3125,352.5469 132.4219,354.4375 135.3125,354.4375 C136.5313,354.4375 137.6875,354.1406 138.4375,353.5938 C139.0156,353.1875 139.3438,352.7344 139.3438,352.3438 C139.3438,351.8906 138.9531,351.5 138.4844,351.5 C138.2656,351.5 138.0625,351.5781 137.875,351.7656 C137.4219,352.25 137.4219,352.25 137.2344,352.3438 C136.8125,352.6094 136.125,352.7344 135.3594,352.7344 C133.3125,352.7344 132.0156,351.6406 132.0156,349.9375 L132.0156,348.8438 C132.0156,347.0625 133.2656,345.75 135,345.75 C135.5781,345.75 136.1875,345.9063 136.6563,346.1563 C137.1406,346.4375 137.3125,346.6563 137.4063,347.0625 C137.4688,347.4688 137.5,347.5938 137.6406,347.7188 C137.7813,347.8594 138.0156,347.9688 138.2344,347.9688 C138.5,347.9688 138.7656,347.8281 138.9375,347.6094 C139.0469,347.4531 139.0781,347.2656 139.0781,346.8438 L139.0781,345.4219 C139.0781,344.9844 139.0625,344.8594 138.9688,344.7031 C138.8125,344.4375 138.5313,344.2969 138.2344,344.2969 C137.9375,344.2969 137.7344,344.3906 137.5156,344.7031 L137.3438,344.625 Z " fill="#000000"/><text fill="#000000" font-family="sans-serif" font-size="12" lengthAdjust="spacing" textLength="64" x="149" y="353.1074">ApkAssets</text><line style="stroke:#008000;stroke-width:1.5;" x1="121" x2="215" y1="364.9531" y2="364.9531"/><line style="stroke:#008000;stroke-width:1.5;" x1="121" x2="215" y1="372.9531" y2="372.9531"/><!--MD5=[d33a9989d36ad63b0c16699d4d34f2e8]
class androidfw.AssetManager2--><rect codeLine="7" fill="#FEFECE" filter="url(#fksjrlln3pww)" height="48" id="androidfw.AssetManager2" style="stroke:#A80036;stroke-width:1.5;" width="126" x="360" y="332.9531"/><ellipse cx="375" cy="348.9531" fill="#ADD1B2" rx="11" ry="11" style="stroke:#A80036;stroke-width:1.0;"/><path d="M377.3438,344.625 C376.4063,344.1875 375.8125,344.0469 374.9375,344.0469 C372.3125,344.0469 370.3125,346.125 370.3125,348.8438 L370.3125,349.9688 C370.3125,352.5469 372.4219,354.4375 375.3125,354.4375 C376.5313,354.4375 377.6875,354.1406 378.4375,353.5938 C379.0156,353.1875 379.3438,352.7344 379.3438,352.3438 C379.3438,351.8906 378.9531,351.5 378.4844,351.5 C378.2656,351.5 378.0625,351.5781 377.875,351.7656 C377.4219,352.25 377.4219,352.25 377.2344,352.3438 C376.8125,352.6094 376.125,352.7344 375.3594,352.7344 C373.3125,352.7344 372.0156,351.6406 372.0156,349.9375 L372.0156,348.8438 C372.0156,347.0625 373.2656,345.75 375,345.75 C375.5781,345.75 376.1875,345.9063 376.6563,346.1563 C377.1406,346.4375 377.3125,346.6563 377.4063,347.0625 C377.4688,347.4688 377.5,347.5938 377.6406,347.7188 C377.7813,347.8594 378.0156,347.9688 378.2344,347.9688 C378.5,347.9688 378.7656,347.8281 378.9375,347.6094 C379.0469,347.4531 379.0781,347.2656 379.0781,346.8438 L379.0781,345.4219 C379.0781,344.9844 379.0625,344.8594 378.9688,344.7031 C378.8125,344.4375 378.5313,344.2969 378.2344,344.2969 C377.9375,344.2969 377.7344,344.3906 377.5156,344.7031 L377.3438,344.625 Z " fill="#000000"/><text fill="#000000" font-family="sans-serif" font-size="12" lengthAdjust="spacing" textLength="94" x="389" y="353.1074">AssetManager2</text><line style="stroke:#A80036;stroke-width:1.5;" x1="361" x2="485" y1="364.9531" y2="364.9531"/><line style="stroke:#A80036;stroke-width:1.5;" x1="361" x2="485" y1="372.9531" y2="372.9531"/><!--MD5=[06e5549152e5e2d3f357f024f7943633]
class androidfw.ApkAssets--><rect codeLine="8" fill="#FEFECE" filter="url(#fksjrlln3pww)" height="48" id="androidfw.ApkAssets" style="stroke:#A80036;stroke-width:1.5;" width="96" x="360" y="459.9531"/><ellipse cx="375" cy="475.9531" fill="#ADD1B2" rx="11" ry="11" style="stroke:#A80036;stroke-width:1.0;"/><path d="M377.3438,471.625 C376.4063,471.1875 375.8125,471.0469 374.9375,471.0469 C372.3125,471.0469 370.3125,473.125 370.3125,475.8438 L370.3125,476.9688 C370.3125,479.5469 372.4219,481.4375 375.3125,481.4375 C376.5313,481.4375 377.6875,481.1406 378.4375,480.5938 C379.0156,480.1875 379.3438,479.7344 379.3438,479.3438 C379.3438,478.8906 378.9531,478.5 378.4844,478.5 C378.2656,478.5 378.0625,478.5781 377.875,478.7656 C377.4219,479.25 377.4219,479.25 377.2344,479.3438 C376.8125,479.6094 376.125,479.7344 375.3594,479.7344 C373.3125,479.7344 372.0156,478.6406 372.0156,476.9375 L372.0156,475.8438 C372.0156,474.0625 373.2656,472.75 375,472.75 C375.5781,472.75 376.1875,472.9063 376.6563,473.1563 C377.1406,473.4375 377.3125,473.6563 377.4063,474.0625 C377.4688,474.4688 377.5,474.5938 377.6406,474.7188 C377.7813,474.8594 378.0156,474.9688 378.2344,474.9688 C378.5,474.9688 378.7656,474.8281 378.9375,474.6094 C379.0469,474.4531 379.0781,474.2656 379.0781,473.8438 L379.0781,472.4219 C379.0781,471.9844 379.0625,471.8594 378.9688,471.7031 C378.8125,471.4375 378.5313,471.2969 378.2344,471.2969 C377.9375,471.2969 377.7344,471.3906 377.5156,471.7031 L377.3438,471.625 Z " fill="#000000"/><text fill="#000000" font-family="sans-serif" font-size="12" lengthAdjust="spacing" textLength="64" x="389" y="480.1074">ApkAssets</text><line style="stroke:#A80036;stroke-width:1.5;" x1="361" x2="455" y1="491.9531" y2="491.9531"/><line style="stroke:#A80036;stroke-width:1.5;" x1="361" x2="455" y1="499.9531" y2="499.9531"/><!--MD5=[66d4b256aa43abb1bbaabe80d65fa547]
class androidfw.LoadedArsc--><rect codeLine="9" fill="#FEFECE" filter="url(#fksjrlln3pww)" height="48" id="androidfw.LoadedArsc" style="stroke:#A80036;stroke-width:1.5;" width="104" x="360" y="584.9531"/><ellipse cx="375" cy="600.9531" fill="#ADD1B2" rx="11" ry="11" style="stroke:#A80036;stroke-width:1.0;"/><path d="M377.3438,596.625 C376.4063,596.1875 375.8125,596.0469 374.9375,596.0469 C372.3125,596.0469 370.3125,598.125 370.3125,600.8438 L370.3125,601.9688 C370.3125,604.5469 372.4219,606.4375 375.3125,606.4375 C376.5313,606.4375 377.6875,606.1406 378.4375,605.5938 C379.0156,605.1875 379.3438,604.7344 379.3438,604.3438 C379.3438,603.8906 378.9531,603.5 378.4844,603.5 C378.2656,603.5 378.0625,603.5781 377.875,603.7656 C377.4219,604.25 377.4219,604.25 377.2344,604.3438 C376.8125,604.6094 376.125,604.7344 375.3594,604.7344 C373.3125,604.7344 372.0156,603.6406 372.0156,601.9375 L372.0156,600.8438 C372.0156,599.0625 373.2656,597.75 375,597.75 C375.5781,597.75 376.1875,597.9063 376.6563,598.1563 C377.1406,598.4375 377.3125,598.6563 377.4063,599.0625 C377.4688,599.4688 377.5,599.5938 377.6406,599.7188 C377.7813,599.8594 378.0156,599.9688 378.2344,599.9688 C378.5,599.9688 378.7656,599.8281 378.9375,599.6094 C379.0469,599.4531 379.0781,599.2656 379.0781,598.8438 L379.0781,597.4219 C379.0781,596.9844 379.0625,596.8594 378.9688,596.7031 C378.8125,596.4375 378.5313,596.2969 378.2344,596.2969 C377.9375,596.2969 377.7344,596.3906 377.5156,596.7031 L377.3438,596.625 Z " fill="#000000"/><text fill="#000000" font-family="sans-serif" font-size="12" lengthAdjust="spacing" textLength="72" x="389" y="605.1074">LoadedArsc</text><line style="stroke:#A80036;stroke-width:1.5;" x1="361" x2="463" y1="616.9531" y2="616.9531"/><line style="stroke:#A80036;stroke-width:1.5;" x1="361" x2="463" y1="624.9531" y2="624.9531"/><!--MD5=[93689caac0b8365d67b23f98e477a087]
class androidfw.LoadedPackage--><rect codeLine="10" fill="#FEFECE" filter="url(#fksjrlln3pww)" height="48" id="androidfw.LoadedPackage" style="stroke:#A80036;stroke-width:1.5;" width="127" x="487.5" y="709.9531"/><ellipse cx="502.5" cy="725.9531" fill="#ADD1B2" rx="11" ry="11" style="stroke:#A80036;stroke-width:1.0;"/><path d="M504.8438,721.625 C503.9063,721.1875 503.3125,721.0469 502.4375,721.0469 C499.8125,721.0469 497.8125,723.125 497.8125,725.8438 L497.8125,726.9688 C497.8125,729.5469 499.9219,731.4375 502.8125,731.4375 C504.0313,731.4375 505.1875,731.1406 505.9375,730.5938 C506.5156,730.1875 506.8438,729.7344 506.8438,729.3438 C506.8438,728.8906 506.4531,728.5 505.9844,728.5 C505.7656,728.5 505.5625,728.5781 505.375,728.7656 C504.9219,729.25 504.9219,729.25 504.7344,729.3438 C504.3125,729.6094 503.625,729.7344 502.8594,729.7344 C500.8125,729.7344 499.5156,728.6406 499.5156,726.9375 L499.5156,725.8438 C499.5156,724.0625 500.7656,722.75 502.5,722.75 C503.0781,722.75 503.6875,722.9063 504.1563,723.1563 C504.6406,723.4375 504.8125,723.6563 504.9063,724.0625 C504.9688,724.4688 505,724.5938 505.1406,724.7188 C505.2813,724.8594 505.5156,724.9688 505.7344,724.9688 C506,724.9688 506.2656,724.8281 506.4375,724.6094 C506.5469,724.4531 506.5781,724.2656 506.5781,723.8438 L506.5781,722.4219 C506.5781,721.9844 506.5625,721.8594 506.4688,721.7031 C506.3125,721.4375 506.0313,721.2969 505.7344,721.2969 C505.4375,721.2969 505.2344,721.3906 505.0156,721.7031 L504.8438,721.625 Z " fill="#000000"/><text fill="#000000" font-family="sans-serif" font-size="12" lengthAdjust="spacing" textLength="95" x="516.5" y="730.1074">LoadedPackage</text><line style="stroke:#A80036;stroke-width:1.5;" x1="488.5" x2="613.5" y1="741.9531" y2="741.9531"/><line style="stroke:#A80036;stroke-width:1.5;" x1="488.5" x2="613.5" y1="749.9531" y2="749.9531"/><!--MD5=[fa8cbe3ded64bf6a93c194dfff3e2d91]
class androidfw.AssetManager2.ConfiguredPackage--><rect codeLine="11" fill="#FEFECE" filter="url(#fksjrlln3pww)" height="48" id="androidfw.AssetManager2.ConfiguredPackage" style="stroke:#A80036;stroke-width:1.5;" width="245" x="555.5" y="584.9531"/><ellipse cx="570.5" cy="600.9531" fill="#ADD1B2" rx="11" ry="11" style="stroke:#A80036;stroke-width:1.0;"/><path d="M572.8438,596.625 C571.9063,596.1875 571.3125,596.0469 570.4375,596.0469 C567.8125,596.0469 565.8125,598.125 565.8125,600.8438 L565.8125,601.9688 C565.8125,604.5469 567.9219,606.4375 570.8125,606.4375 C572.0313,606.4375 573.1875,606.1406 573.9375,605.5938 C574.5156,605.1875 574.8438,604.7344 574.8438,604.3438 C574.8438,603.8906 574.4531,603.5 573.9844,603.5 C573.7656,603.5 573.5625,603.5781 573.375,603.7656 C572.9219,604.25 572.9219,604.25 572.7344,604.3438 C572.3125,604.6094 571.625,604.7344 570.8594,604.7344 C568.8125,604.7344 567.5156,603.6406 567.5156,601.9375 L567.5156,600.8438 C567.5156,599.0625 568.7656,597.75 570.5,597.75 C571.0781,597.75 571.6875,597.9063 572.1563,598.1563 C572.6406,598.4375 572.8125,598.6563 572.9063,599.0625 C572.9688,599.4688 573,599.5938 573.1406,599.7188 C573.2813,599.8594 573.5156,599.9688 573.7344,599.9688 C574,599.9688 574.2656,599.8281 574.4375,599.6094 C574.5469,599.4531 574.5781,599.2656 574.5781,598.8438 L574.5781,597.4219 C574.5781,596.9844 574.5625,596.8594 574.4688,596.7031 C574.3125,596.4375 574.0313,596.2969 573.7344,596.2969 C573.4375,596.2969 573.2344,596.3906 573.0156,596.7031 L572.8438,596.625 Z " fill="#000000"/><text fill="#000000" font-family="sans-serif" font-size="12" lengthAdjust="spacing" textLength="213" x="584.5" y="605.1074">AssetManager2.ConfiguredPackage</text><line style="stroke:#A80036;stroke-width:1.5;" x1="556.5" x2="799.5" y1="616.9531" y2="616.9531"/><line style="stroke:#A80036;stroke-width:1.5;" x1="556.5" x2="799.5" y1="624.9531" y2="624.9531"/><!--MD5=[7e2dfa8fc521176fe56a75e5a2fe1270]
class androidfw.AssetManager2.ConfiguredOverlay--><rect codeLine="12" fill="#FEFECE" filter="url(#fksjrlln3pww)" height="48" id="androidfw.AssetManager2.ConfiguredOverlay" style="stroke:#A80036;stroke-width:1.5;" width="242" x="911" y="584.9531"/><ellipse cx="926" cy="600.9531" fill="#ADD1B2" rx="11" ry="11" style="stroke:#A80036;stroke-width:1.0;"/><path d="M928.3438,596.625 C927.4063,596.1875 926.8125,596.0469 925.9375,596.0469 C923.3125,596.0469 921.3125,598.125 921.3125,600.8438 L921.3125,601.9688 C921.3125,604.5469 923.4219,606.4375 926.3125,606.4375 C927.5313,606.4375 928.6875,606.1406 929.4375,605.5938 C930.0156,605.1875 930.3438,604.7344 930.3438,604.3438 C930.3438,603.8906 929.9531,603.5 929.4844,603.5 C929.2656,603.5 929.0625,603.5781 928.875,603.7656 C928.4219,604.25 928.4219,604.25 928.2344,604.3438 C927.8125,604.6094 927.125,604.7344 926.3594,604.7344 C924.3125,604.7344 923.0156,603.6406 923.0156,601.9375 L923.0156,600.8438 C923.0156,599.0625 924.2656,597.75 926,597.75 C926.5781,597.75 927.1875,597.9063 927.6563,598.1563 C928.1406,598.4375 928.3125,598.6563 928.4063,599.0625 C928.4688,599.4688 928.5,599.5938 928.6406,599.7188 C928.7813,599.8594 929.0156,599.9688 929.2344,599.9688 C929.5,599.9688 929.7656,599.8281 929.9375,599.6094 C930.0469,599.4531 930.0781,599.2656 930.0781,598.8438 L930.0781,597.4219 C930.0781,596.9844 930.0625,596.8594 929.9688,596.7031 C929.8125,596.4375 929.5313,596.2969 929.2344,596.2969 C928.9375,596.2969 928.7344,596.3906 928.5156,596.7031 L928.3438,596.625 Z " fill="#000000"/><text fill="#000000" font-family="sans-serif" font-size="12" lengthAdjust="spacing" textLength="210" x="940" y="605.1074">AssetManager2.ConfiguredOverlay</text><line style="stroke:#A80036;stroke-width:1.5;" x1="912" x2="1152" y1="616.9531" y2="616.9531"/><line style="stroke:#A80036;stroke-width:1.5;" x1="912" x2="1152" y1="624.9531" y2="624.9531"/><!--MD5=[9632d5f08b8a842f5289324b6c8ed3b8]
class androidfw.AssetManager2.PackageGroup--><rect codeLine="13" fill="#FEFECE" filter="url(#fksjrlln3pww)" height="48" id="androidfw.AssetManager2.PackageGroup" style="stroke:#A80036;stroke-width:1.5;" width="216" x="592" y="459.9531"/><ellipse cx="607" cy="475.9531" fill="#ADD1B2" rx="11" ry="11" style="stroke:#A80036;stroke-width:1.0;"/><path d="M609.3438,471.625 C608.4063,471.1875 607.8125,471.0469 606.9375,471.0469 C604.3125,471.0469 602.3125,473.125 602.3125,475.8438 L602.3125,476.9688 C602.3125,479.5469 604.4219,481.4375 607.3125,481.4375 C608.5313,481.4375 609.6875,481.1406 610.4375,480.5938 C611.0156,480.1875 611.3438,479.7344 611.3438,479.3438 C611.3438,478.8906 610.9531,478.5 610.4844,478.5 C610.2656,478.5 610.0625,478.5781 609.875,478.7656 C609.4219,479.25 609.4219,479.25 609.2344,479.3438 C608.8125,479.6094 608.125,479.7344 607.3594,479.7344 C605.3125,479.7344 604.0156,478.6406 604.0156,476.9375 L604.0156,475.8438 C604.0156,474.0625 605.2656,472.75 607,472.75 C607.5781,472.75 608.1875,472.9063 608.6563,473.1563 C609.1406,473.4375 609.3125,473.6563 609.4063,474.0625 C609.4688,474.4688 609.5,474.5938 609.6406,474.7188 C609.7813,474.8594 610.0156,474.9688 610.2344,474.9688 C610.5,474.9688 610.7656,474.8281 610.9375,474.6094 C611.0469,474.4531 611.0781,474.2656 611.0781,473.8438 L611.0781,472.4219 C611.0781,471.9844 611.0625,471.8594 610.9688,471.7031 C610.8125,471.4375 610.5313,471.2969 610.2344,471.2969 C609.9375,471.2969 609.7344,471.3906 609.5156,471.7031 L609.3438,471.625 Z " fill="#000000"/><text fill="#000000" font-family="sans-serif" font-size="12" lengthAdjust="spacing" textLength="184" x="621" y="480.1074">AssetManager2.PackageGroup</text><line style="stroke:#A80036;stroke-width:1.5;" x1="593" x2="807" y1="491.9531" y2="491.9531"/><line style="stroke:#A80036;stroke-width:1.5;" x1="593" x2="807" y1="499.9531" y2="499.9531"/><!--MD5=[9329a11f44f6a6b0972c7040d3410191]
class androidfw.IdmapResMap--><rect codeLine="14" fill="#FEFECE" filter="url(#fksjrlln3pww)" height="48" id="androidfw.IdmapResMap" style="stroke:#A80036;stroke-width:1.5;" width="116" x="975" y="709.9531"/><ellipse cx="990" cy="725.9531" fill="#ADD1B2" rx="11" ry="11" style="stroke:#A80036;stroke-width:1.0;"/><path d="M992.3438,721.625 C991.4063,721.1875 990.8125,721.0469 989.9375,721.0469 C987.3125,721.0469 985.3125,723.125 985.3125,725.8438 L985.3125,726.9688 C985.3125,729.5469 987.4219,731.4375 990.3125,731.4375 C991.5313,731.4375 992.6875,731.1406 993.4375,730.5938 C994.0156,730.1875 994.3438,729.7344 994.3438,729.3438 C994.3438,728.8906 993.9531,728.5 993.4844,728.5 C993.2656,728.5 993.0625,728.5781 992.875,728.7656 C992.4219,729.25 992.4219,729.25 992.2344,729.3438 C991.8125,729.6094 991.125,729.7344 990.3594,729.7344 C988.3125,729.7344 987.0156,728.6406 987.0156,726.9375 L987.0156,725.8438 C987.0156,724.0625 988.2656,722.75 990,722.75 C990.5781,722.75 991.1875,722.9063 991.6563,723.1563 C992.1406,723.4375 992.3125,723.6563 992.4063,724.0625 C992.4688,724.4688 992.5,724.5938 992.6406,724.7188 C992.7813,724.8594 993.0156,724.9688 993.2344,724.9688 C993.5,724.9688 993.7656,724.8281 993.9375,724.6094 C994.0469,724.4531 994.0781,724.2656 994.0781,723.8438 L994.0781,722.4219 C994.0781,721.9844 994.0625,721.8594 993.9688,721.7031 C993.8125,721.4375 993.5313,721.2969 993.2344,721.2969 C992.9375,721.2969 992.7344,721.3906 992.5156,721.7031 L992.3438,721.625 Z " fill="#000000"/><text fill="#000000" font-family="sans-serif" font-size="12" lengthAdjust="spacing" textLength="84" x="1004" y="730.1074">IdmapResMap</text><line style="stroke:#A80036;stroke-width:1.5;" x1="976" x2="1090" y1="741.9531" y2="741.9531"/><line style="stroke:#A80036;stroke-width:1.5;" x1="976" x2="1090" y1="749.9531" y2="749.9531"/><!--MD5=[1a477faeadd076f11804a31152b9ded9]
reverse link android.content.res.ResourcesImpl to android.content.res.AssetManager--><path codeLine="17" d="M168,123.1671 C168,143.7861 168,168.9961 168,186.9211 " fill="none" id="android.content.res.ResourcesImpl-backto-android.content.res.AssetManager" style="stroke:#A80036;stroke-width:1.0;"/><polygon fill="#A80036" points="168,110.0881,164,116.0881,168,122.0881,172,116.0881,168,110.0881" style="stroke:#A80036;stroke-width:1.0;"/><text fill="#000000" font-family="sans-serif" font-size="13" lengthAdjust="spacing" textLength="34" x="169" y="153.02">owns</text><!--MD5=[054bb913efbc86328800cfece134c52c]
reverse link android.content.res.AssetManager to android.content.res.ApkAssets--><path codeLine="18" d="M115.594,243.6851 C104.53,254.5661 97.6089,267.6461 103,281.9531 C110.416,301.6351 125.711,319.4861 139.602,332.7231 " fill="none" id="android.content.res.AssetManager-backto-android.content.res.ApkAssets" style="stroke:#A80036;stroke-width:1.0;"/><polygon fill="#FFFFFF" points="125.683,235.0821,118.522,235.9309,116.5513,242.8675,123.7123,242.0187,125.683,235.0821" style="stroke:#A80036;stroke-width:1.0;"/><text fill="#000000" font-family="sans-serif" font-size="13" lengthAdjust="spacing" textLength="235" x="104" y="278.02">loaded APKs exist on the C/C++ side</text><!--MD5=[9e073439cec8d4223a8d7aefedd12b11]
reverse link androidfw.AssetManager2 to androidfw.ApkAssets--><path codeLine="20" d="M409.532,393.6071 C407.65,399.9651 406.015,406.5911 405,412.9531 C402.529,428.4491 403.31,446.1021 404.693,459.8041 " fill="none" id="androidfw.AssetManager2-backto-androidfw.ApkAssets" style="stroke:#A80036;stroke-width:1.0;"/><polygon fill="#FFFFFF" points="413.621,381.1021,407.9545,385.5621,409.892,392.508,415.5585,388.0481,413.621,381.1021" style="stroke:#A80036;stroke-width:1.0;"/><text fill="#000000" font-family="sans-serif" font-size="13" lengthAdjust="spacing" textLength="250" x="406" y="426.02">pointers to loaded APK representations</text><!--MD5=[0b6efabfadd58b14cb2131bc0d48b01f]
reverse link androidfw.AssetManager2 to androidfw.AssetManager2.PackageGroup--><path codeLine="22" d="M499.362,359.9201 C549.663,364.7361 614.563,378.0311 661,412.9531 C676.455,424.5751 686.624,444.2141 692.692,459.7371 " fill="none" id="androidfw.AssetManager2-backto-androidfw.AssetManager2.PackageGroup" style="stroke:#A80036;stroke-width:1.0;"/><polygon fill="#FFFFFF" points="486.25,358.8231,491.8955,363.3096,498.2082,359.824,492.5627,355.3375,486.25,358.8231" style="stroke:#A80036;stroke-width:1.0;"/><text fill="#000000" font-family="sans-serif" font-size="13" lengthAdjust="spacing" textLength="523" x="677" y="426.02">represents a logical package, which can be made up of many individual packages</text><!--MD5=[487df165123e1624745c881db104cf34]
link android.content.res.AssetManager to androidfw.AssetManager2--><path codeLine="25" d="M227.392,221.1941 C263.291,228.8001 308.766,242.1611 344,264.9531 C369.42,281.3971 391.344,308.3271 405.602,328.6341 " fill="none" id="android.content.res.AssetManager-to-androidfw.AssetManager2" style="stroke:#A80036;stroke-width:1.0;"/><polygon fill="#A80036" points="408.527,332.8611,406.6939,323.1844,405.6814,328.7499,400.1159,327.7373,408.527,332.8611" style="stroke:#A80036;stroke-width:1.0;"/><text fill="#000000" font-family="sans-serif" font-size="13" lengthAdjust="spacing" textLength="48" x="366" y="278.02">JNI calls</text><!--MD5=[583af9c9f96e065a6214250a0b7e3a07]
link android.content.res.ApkAssets to androidfw.ApkAssets--><path codeLine="27" d="M212.299,381.0261 C253.856,402.6701 315.884,434.9761 358.926,457.3931 " fill="none" id="android.content.res.ApkAssets-to-androidfw.ApkAssets" style="stroke:#A80036;stroke-width:1.0;"/><polygon fill="#A80036" points="363.553,459.8031,357.4192,452.0975,359.1186,457.4931,353.7231,459.1925,363.553,459.8031" style="stroke:#A80036;stroke-width:1.0;"/><text fill="#000000" font-family="sans-serif" font-size="13" lengthAdjust="spacing" textLength="48" x="304" y="426.02">JNI calls</text><!--MD5=[030ad7f82b260418feb3aca4dd9801a5]
reverse link androidfw.LoadedArsc to androidfw.LoadedPackage--><path codeLine="29" d="M387.793,644.4961 C382.481,656.4741 380.412,669.5071 388,679.9531 C410.56,711.0108 451.773,724.226 487.112,729.6944 " fill="none" id="androidfw.LoadedArsc-backto-androidfw.LoadedPackage" style="stroke:#A80036;stroke-width:1.0;"/><polygon fill="#FFFFFF" points="393.95,633.0041,387.5904,636.4035,388.2823,643.5813,394.6419,640.182,393.95,633.0041" style="stroke:#A80036;stroke-width:1.0;"/><text fill="#000000" font-family="sans-serif" font-size="13" lengthAdjust="spacing" textLength="241" x="389" y="676.02">loaded packages from resources.arsc</text><!--MD5=[30d120f82a5771803079cf4d4e1bbdf2]
reverse link androidfw.AssetManager2.PackageGroup to androidfw.AssetManager2.ConfiguredPackage--><path codeLine="31" d="M682.363,520.1851 C680.145,525.9931 678.226,532.0481 677,537.9531 C673.813,553.3041 674.091,570.9591 675.153,584.6971 " fill="none" id="androidfw.AssetManager2.PackageGroup-backto-androidfw.AssetManager2.ConfiguredPackage" style="stroke:#A80036;stroke-width:1.0;"/><polygon fill="#FFFFFF" points="687.546,508.0161,681.5147,511.9687,682.8435,519.0563,688.8748,515.1037,687.546,508.0161" style="stroke:#A80036;stroke-width:1.0;"/><text fill="#000000" font-family="sans-serif" font-size="13" lengthAdjust="spacing" textLength="308" x="678" y="551.02">set of loaded packages that make-up this group</text><!--MD5=[883a933c9bafbe3e6721dc86a2e2a349]
reverse link androidfw.AssetManager2.PackageGroup to androidfw.AssetManager2.ConfiguredOverlay--><path codeLine="32" d="M821.372,496.8171 C888.409,505.3361 963.537,518.7361 991,537.9531 C1007.16,549.2571 1017.9,569.1331 1024.33,584.8241 " fill="none" id="androidfw.AssetManager2.PackageGroup-backto-androidfw.AssetManager2.ConfiguredOverlay" style="stroke:#A80036;stroke-width:1.0;"/><polygon fill="#FFFFFF" points="808.089,495.1781,813.5542,499.8825,819.9988,496.6471,814.5335,491.9427,808.089,495.1781" style="stroke:#A80036;stroke-width:1.0;"/><text fill="#000000" font-family="sans-serif" font-size="13" lengthAdjust="spacing" textLength="325" x="1008" y="551.02">RROs that overlay resources in this package group</text><!--MD5=[7f13e8eeb37006004807b6d491c15fa8]
reverse link androidfw.AssetManager2.ConfiguredOverlay to androidfw.IdmapResMap--><path codeLine="33" d="M1032.29,646.1671 C1032.46,666.7861 1032.67,691.9964 1032.81,709.9215 " fill="none" id="androidfw.AssetManager2.ConfiguredOverlay-backto-androidfw.IdmapResMap" style="stroke:#A80036;stroke-width:1.0;"/><polygon fill="#A80036" points="1032.19,633.0881,1028.2389,639.1205,1032.2876,645.0877,1036.2387,639.0554,1032.19,633.0881" style="stroke:#A80036;stroke-width:1.0;"/><text fill="#000000" font-family="sans-serif" font-size="13" lengthAdjust="spacing" textLength="580" x="1033" y="676.02">a mapping of target resource ids to a values or resource ids that should overlay the target</text><!--MD5=[9056e22adfa8bebc38aee4d798b25385]
reverse link androidfw.AssetManager2.ConfiguredPackage to androidfw.LoadedPackage--><path codeLine="34" d="M663.012,645.0421 C656.767,657.0321 648.688,669.9321 639,679.9531 C627.719,691.6213 613.339,701.6911 599.488,709.8245 " fill="none" id="androidfw.AssetManager2.ConfiguredPackage-backto-androidfw.LoadedPackage" style="stroke:#A80036;stroke-width:1.0;"/><polygon fill="#FFFFFF" points="668.847,633.0351,662.6267,636.6831,663.6016,643.828,669.8219,640.18,668.847,633.0351" style="stroke:#A80036;stroke-width:1.0;"/><text fill="#000000" font-family="sans-serif" font-size="13" lengthAdjust="spacing" textLength="313" x="653" y="676.02">a pointer to the immutable, loaded package info.</text><!--MD5=[8cdb0b226f83d8a00f83dcbf5946d64e]
@startuml
title AssetManager (JAVA (android.content.res) and C/C++ (androidfw))

class android.content.res.ResourcesImpl #lightblue;line:green
class android.content.res.AssetManager #lightblue;line:green
class android.content.res.ApkAssets #lightblue;line:green

class androidfw.AssetManager2
class androidfw.ApkAssets
class androidfw.LoadedArsc
class androidfw.LoadedPackage
class androidfw.AssetManager2.ConfiguredPackage
class androidfw.AssetManager2.ConfiguredOverlay
class androidfw.AssetManager2.PackageGroup
class androidfw.IdmapResMap


android.content.res.ResourcesImpl *- - android.content.res.AssetManager : owns
android.content.res.AssetManager o- - android.content.res.ApkAssets : loaded APKs exist on the C/C++ side

androidfw.AssetManager2 o- - androidfw.ApkAssets : pointers to loaded APK representations

androidfw.AssetManager2 o- - androidfw.AssetManager2.PackageGroup : represents a logical package, which can be made up of many individual packages


android.content.res.AssetManager - -> androidfw.AssetManager2 : JNI calls

android.content.res.ApkAssets - -> androidfw.ApkAssets : JNI calls

androidfw.LoadedArsc o- - androidfw.LoadedPackage : loaded packages from resources.arsc

androidfw.AssetManager2.PackageGroup o- - androidfw.AssetManager2.ConfiguredPackage :  set of loaded packages that make-up this group
androidfw.AssetManager2.PackageGroup o- - androidfw.AssetManager2.ConfiguredOverlay :  RROs that overlay resources in this package group
androidfw.AssetManager2.ConfiguredOverlay *- - androidfw.IdmapResMap :  a mapping of target resource ids to a values or resource ids that should overlay the target
androidfw.AssetManager2.ConfiguredPackage o- - androidfw.LoadedPackage :  a pointer to the immutable, loaded package info.
@enduml

PlantUML version 1.2021.11beta5(Unknown compile time)
(GPL source distribution)
Java Runtime: Java(TM) SE Runtime Environment
JVM: Java HotSpot(TM) 64-Bit Server VM
Default Encoding: UTF-8
Language: en
Country: US
--></g></svg>